<?xml version="1.0" encoding="UTF-8"?>
<!DOCTYPE svg PUBLIC "-//W3C//DTD SVG 1.1//EN" "http://www.w3.org/Graphics/SVG/1.1/DTD/svg11.dtd">
<!-- Creator: CorelDRAW (Versão OEM) -->
<svg xmlns="http://www.w3.org/2000/svg" xml:space="preserve" width="1000px" height="1000px" version="1.1" style="shape-rendering:geometricPrecision; text-rendering:geometricPrecision; image-rendering:optimizeQuality; fill-rule:evenodd; clip-rule:evenodd"
viewBox="0 0 1000 1000"
 xmlns:xlink="http://www.w3.org/1999/xlink"
 xmlns:xodm="http://www.corel.com/coreldraw/odm/2003">
 <defs>
  <style type="text/css">
   <![CDATA[
    .str0 {stroke:white;stroke-width:2;stroke-miterlimit:22.9256}
    .fil4 {fill:none}
    .fil3 {fill:#0CC0DF}
    .fil0 {fill:#0E4574}
    .fil2 {fill:white}
    .fil1 {fill:white;fill-rule:nonzero}
   ]]>
  </style>
   <clipPath id="id0">
    <path d="M634 474l0 -134.49 -182.7 -80.02 -160.3 70.21 0 410.81 38 0 0 -385.97 122.3 -53.56 0 96.26 0 108.27 0 235 257.7 0 0 -235 -75 -31.51zm-263 -61.49l36 -15.24 0 43 -36 15.24 0 -43zm0 100l36 -15.24 0 43 -36 15.24 0 -43zm0 100l36 -15.24 0 43 -36 15.24 0 -43zm161 6l-36 -15.24 0 43 36 15.24 0 -43zm1 -110l-36 -15.24 0 43 36 15.24 0 -43zm1 -110l-36 -15.24 0 42.99 36 15.25 0 -43zm65 21l-36 -15.24 0 43 36 15.24 0 -43zm-1 111l-36 -15.24 0 43 36 15.24 0 -43zm-1 111l-36 -15.24 0 43 36 15.24 0 -43zm72 26l-36 -15.24 0 43 36 15.24 0 -43zm0 -112l-36 -15.24 0 43 36 15.24 0 -43z"/>
   </clipPath>
 </defs>
 <g id="Camada_x0020_1">
  <metadata id="CorelCorpID_0Corel-Layer"/>
  <rect class="fil0" width="1000" height="1000" rx="150" ry="150"/>
  <path class="fil1" d="M223 153l100 0 0 40 -100 0c-8.23,0 -15.73,3.38 -21.17,8.83 -5.45,5.44 -8.83,12.94 -8.83,21.17l0 100 -40 0 0 -100c0,-19.27 7.87,-36.78 20.55,-49.45 12.67,-12.68 30.18,-20.55 49.45,-20.55z"/>
  <path class="fil1" d="M223 847l100 0 0 -40 -100 0c-8.23,0 -15.73,-3.38 -21.17,-8.83 -5.45,-5.44 -8.83,-12.94 -8.83,-21.17l0 -100 -40 0 0 100c0,19.27 7.87,36.78 20.55,49.45 12.67,12.68 30.18,20.55 49.45,20.55z"/>
  <path class="fil1" d="M777 847l-100 0 0 -40 100 0c8.23,0 15.73,-3.38 21.17,-8.83 5.45,-5.44 8.83,-12.94 8.83,-21.17l0 -100 40 0 0 100c0,19.27 -7.87,36.78 -20.55,49.45 -12.67,12.68 -30.18,20.55 -49.45,20.55z"/>
  <path class="fil2" d="M780.18 102.42c64.78,0 117.3,52.51 117.3,117.29 0,64.78 -52.52,117.29 -117.3,117.29 -64.77,0 -117.29,-52.51 -117.29,-117.29 0,-64.78 52.52,-117.29 117.29,-117.29zm0 32c47.11,0 85.3,38.18 85.3,85.29 0,47.1 -38.19,85.29 -85.3,85.29 -47.1,0 -85.29,-38.19 -85.29,-85.29 0,-47.11 38.19,-85.29 85.29,-85.29zm0 38.58c25.8,0 46.71,20.91 46.71,46.71 0,25.8 -20.91,46.71 -46.71,46.71 -25.79,0 -46.7,-20.91 -46.7,-46.71 0,-25.8 20.91,-46.71 46.7,-46.71z"/>
  <path class="fil2" d="M634 474l0 -134.49 -182.7 -80.02 -160.3 70.21 0 410.81 38 0 0 -385.97 122.3 -53.56 0 96.26 0 108.27 0 235 257.7 0 0 -235 -75 -31.51zm-263 -61.49l36 -15.24 0 43 -36 15.24 0 -43zm0 100l36 -15.24 0 43 -36 15.24 0 -43zm0 100l36 -15.24 0 43 -36 15.24 0 -43zm161 6l-36 -15.24 0 43 36 15.24 0 -43zm1 -110l-36 -15.24 0 43 36 15.24 0 -43zm1 -110l-36 -15.24 0 42.99 36 15.25 0 -43zm65 21l-36 -15.24 0 43 36 15.24 0 -43zm-1 111l-36 -15.24 0 43 36 15.24 0 -43zm-1 111l-36 -15.24 0 43 36 15.24 0 -43zm72 26l-36 -15.24 0 43 36 15.24 0 -43zm0 -112l-36 -15.24 0 43 36 15.24 0 -43z"/>
  <g style="clip-path:url(#id0)">
   <g id="_2024622400">
    <rect class="fil3" x="198" y="105.51" width="383" height="728"/>
   </g>
  </g>
  <path class="fil4" d="M634 474l0 -134.49 -182.7 -80.02 -160.3 70.21 0 410.81 38 0 0 -385.97 122.3 -53.56 0 96.26 0 108.27 0 235 257.7 0 0 -235 -75 -31.51zm-263 -61.49l36 -15.24 0 43 -36 15.24 0 -43zm0 100l36 -15.24 0 43 -36 15.24 0 -43zm0 100l36 -15.24 0 43 -36 15.24 0 -43zm161 6l-36 -15.24 0 43 36 15.24 0 -43zm1 -110l-36 -15.24 0 43 36 15.24 0 -43zm1 -110l-36 -15.24 0 42.99 36 15.25 0 -43zm65 21l-36 -15.24 0 43 36 15.24 0 -43zm-1 111l-36 -15.24 0 43 36 15.24 0 -43zm-1 111l-36 -15.24 0 43 36 15.24 0 -43zm72 26l-36 -15.24 0 43 36 15.24 0 -43zm0 -112l-36 -15.24 0 43 36 15.24 0 -43z"/>
  <g id="_2024612320">
   <circle class="fil2" cx="528" cy="337" r="10"/>
   <circle class="fil2" cx="644" cy="293" r="10"/>
   <circle class="fil2" cx="507" cy="248" r="10"/>
   <circle class="fil2" cx="597" cy="433" r="10"/>
   <circle class="fil2" cx="737" cy="454" r="10"/>
   <circle class="fil2" cx="691" cy="548" r="10"/>
   <circle class="fil2" cx="794" cy="542" r="10"/>
   <circle class="fil2" cx="787" cy="608" r="10"/>
   <circle class="fil2" cx="769" cy="559" r="10"/>
   <circle class="fil2" cx="816" cy="585" r="10"/>
   <circle class="fil2" cx="544" cy="205" r="10"/>
   <circle class="fil2" cx="411" cy="222" r="10"/>
   <circle class="fil2" cx="370" cy="172" r="10"/>
   <circle class="fil2" cx="341" cy="203" r="10"/>
   <circle class="fil2" cx="285" cy="171" r="10"/>
   <circle class="fil2" cx="269" cy="205" r="10"/>
   <circle class="fil2" cx="222" cy="213" r="10"/>
   <circle class="fil2" cx="215" cy="247" r="10"/>
   <circle class="fil2" cx="184" cy="281" r="10"/>
   <circle class="fil2" cx="291" cy="259" r="10"/>
   <circle class="fil2" cx="202" cy="315" r="10"/>
   <circle class="fil2" cx="267" cy="354" r="10"/>
   <circle class="fil2" cx="341" cy="371" r="10"/>
   <circle class="fil2" cx="391" cy="348" r="10"/>
   <circle class="fil2" cx="271" cy="528" r="10"/>
   <circle class="fil2" cx="360" cy="599" r="10"/>
   <circle class="fil2" cx="492" cy="595" r="10"/>
   <circle class="fil2" cx="643" cy="637" r="10"/>
   <circle class="fil2" cx="725" cy="640" r="10"/>
   <circle class="fil2" cx="745" cy="699" r="10"/>
   <circle class="fil2" cx="673" cy="741" r="10"/>
   <circle class="fil2" cx="612" cy="722" r="10"/>
   <circle class="fil2" cx="506" cy="690" r="10"/>
   <circle class="fil2" cx="285" cy="692" r="10"/>
   <circle class="fil2" cx="358" cy="760" r="10"/>
   <circle class="fil2" cx="414" cy="769" r="10"/>
   <circle class="fil2" cx="604" cy="784" r="10"/>
   <circle class="fil2" cx="628" cy="804" r="10"/>
   <path class="fil4 str0" d="M816 585l-47 -26 18 49m-42 -51l24 2 25 -17m-57 -88l-46 94 54 9 -8 -103zm-377 145l132 -4 71 -4 34 -158m-146 -166l-7.36 37.71 11.36 66.29 142 62 -105 162 -151 -224 50 -23 -31 251 -89 -71 70 -157m50 -23l64 23 37 224m-81 -373l-41 -50 -29 31 -50 56m171 -53l-51 16 -120 37 -89 56 102 -111 66 -32 14.54 58.16m0 0l15.46 57.84 11 -66 40 45 11 -61m-92 -34l92 34 82 -1m-284.47 47.39l9.47 -47.39 -54 42 7 -34 47 -8m142 17l-70 -19 -72 2 16 -34 20 33 -14 55 -24 95 74 17 -50 -112 100 89 9 -60 -109 -29m-76 -12l-31 34m267 -14l77 70 -128 -49 107 -40 137 45 -116 44m-21 -89l21 89 69 96 47 -140 20 63 -67 77 140 21 -73 -98m27 192l-94 -115m-237 166l53 49 93 42 83 82 15 12 69 -43m-61 -19l-23 50 -175 -3 -1 -121m93 42l-92 79m259 -28l-45 63 -24 -20 -33 17 18 -29m-176 -124l-96 95m342 73l-31 -12m0 0l-20 35m83 -291l-48 89 82 3 -34 -92zm-48 89l-80 -46 49 131 113 -82 20 59 -72 42 -61 -19 -106 -32 -14 -95m-134 165l-5.6 -52.03 -67.4 -15.97"/>
  </g>
 </g>
</svg>
